<?xml version="1.0" encoding="UTF-8"?>
<svg version="1.1" xmlns="http://www.w3.org/2000/svg" width="512" height="512">
<path d="M0 0 C0.77150391 0.65379639 0.77150391 0.65379639 1.55859375 1.32080078 C2.07550781 1.7579541 2.59242188 2.19510742 3.125 2.64550781 C26.6602418 22.81119902 43.35835127 51.15043905 46.55859375 82.32080078 C48.30613505 119.30172299 40.4632389 151.4153368 15.1796875 179.25048828 C6.71635633 188.47653997 -2.16865461 197.30888786 -11.00292969 206.17749023 C-13.56744745 208.75316297 -16.12003625 211.34034272 -18.6703434 213.93007565 C-20.66266628 215.94866428 -22.66394058 217.95820051 -24.6676445 219.96548653 C-26.06593531 221.37090945 -27.45458296 222.785906 -28.84292603 224.20115662 C-36.19589856 231.52925302 -43.40736539 237.36362125 -54.12890625 237.57080078 C-62.3900004 237.43736167 -68.64168883 235.1460295 -74.64453125 229.38330078 C-80.63554882 222.50665453 -81.99942482 216.00082642 -82.10546875 207.00830078 C-80.14736939 196.1350902 -72.97905371 189.21622412 -65.33203125 181.82861328 C-64.23840102 180.75198487 -63.14612074 179.67398365 -62.05511475 178.59469604 C-59.19539871 175.77082305 -56.32229268 172.96103669 -53.44458008 170.15551758 C-48.8525335 165.67729697 -44.27471492 161.18481793 -39.70970917 156.67904282 C-38.13207742 155.12782164 -36.54472621 153.58711335 -34.95611572 152.04714966 C-19.29556577 136.72900963 -8.62740614 119.24590054 -7.94140625 96.82080078 C-8.58159175 77.1815617 -16.52104994 60.94328927 -30.44140625 47.32080078 C-31.14910156 46.58087891 -31.85679687 45.84095703 -32.5859375 45.07861328 C-44.84372988 33.03175805 -62.0527311 27.76590303 -78.92456055 27.90063477 C-102.66224058 28.73386274 -119.40172595 41.7686639 -135.37338448 58.22471046 C-136.92883045 59.82518206 -138.49290729 61.4167667 -140.05955505 63.00627136 C-144.50469906 67.51772343 -148.94064512 72.03794168 -153.35620117 76.57836914 C-156.07903319 79.37695577 -158.81668318 82.1603144 -161.56403923 84.93482018 C-162.59699011 85.98373083 -163.62439427 87.03813752 -164.64572334 88.09836769 C-171.46084479 95.16883695 -177.59173153 100.12034232 -187.47265625 101.85205078 C-196.24557023 101.74100124 -203.20960792 99.70564049 -209.81640625 93.75830078 C-214.80848247 88.33169161 -217.51151646 81.57298769 -217.87890625 74.19580078 C-216.26682661 59.91738115 -206.96101876 51.51801125 -197.2265625 41.77001953 C-196.12750087 40.66451083 -195.02858096 39.55886123 -193.92979431 38.45307922 C-191.63112808 36.14249277 -189.32842225 33.83602052 -187.02319336 31.53198242 C-184.68611912 29.19507018 -182.35622624 26.85137079 -180.03295898 24.50073242 C-155.10138143 -0.72008958 -155.10138143 -0.72008958 -142.44140625 -8.67919922 C-141.63630615 -9.19216553 -140.83120605 -9.70513184 -140.00170898 -10.23364258 C-138.07357887 -11.40051026 -136.13658283 -12.46933217 -134.12890625 -13.49169922 C-133.43289307 -13.85150879 -132.73687988 -14.21131836 -132.01977539 -14.58203125 C-124.12431651 -18.52755796 -115.93640468 -21.33467343 -107.44140625 -23.67919922 C-105.62382812 -24.18966797 -105.62382812 -24.18966797 -103.76953125 -24.71044922 C-67.73776446 -33.06115912 -28.2648489 -23.60396827 0 0 Z " fill="#00C5C0" transform="translate(408.44140625,83.67919921875)"/>
<path d="M0 0 C6.71746236 5.65417689 10.8679487 11.6284147 11.98046875 20.51171875 C12.394139 28.24735241 10.25671069 35.28233868 5.40982056 41.34710693 C2.49329667 44.5117311 -0.61577208 47.47390584 -3.7265625 50.4453125 C-4.86697174 51.56243136 -6.00551321 52.68145977 -7.14228821 53.80227661 C-10.12448483 56.73539401 -13.12533443 59.64855234 -16.13262939 62.5559082 C-20.92962405 67.19582082 -25.70577451 71.85670367 -30.4657383 76.53458023 C-32.11192869 78.14433266 -33.77105626 79.73974874 -35.43205261 81.334198 C-50.19551567 95.67168744 -60.95617713 112.62986989 -61.6315918 133.76342773 C-61.82217159 153.8729592 -54.26754112 171.1196099 -40.27734375 185.453125 C-26.94304685 198.42458389 -9.17024946 205.01993773 9.27832031 204.87329102 C24.44947369 204.34022287 39.21358077 198.58053407 50.703125 188.671875 C51.28596252 188.17055054 51.86880005 187.66922607 52.46929932 187.15270996 C58.51403451 181.82803787 64.15447137 176.09860189 69.80078125 170.359375 C70.29163145 169.86094086 70.78248165 169.36250671 71.2882061 168.84896851 C75.90067311 164.16251066 80.50459571 159.46782386 85.08398438 154.74902344 C87.61574311 152.14147914 90.16233674 149.54920944 92.71865082 146.96574402 C94.13542109 145.52540653 95.5356685 144.06887473 96.93536377 142.61193848 C103.20480614 136.29299633 108.9162459 132.47074331 117.75390625 130.921875 C126.66146542 131.03462891 133.58117994 133.08282792 140.16015625 139.265625 C146.10759052 145.78861743 147.90247437 152.74992794 147.72265625 161.453125 C145.80634829 174.06726868 136.29603404 182.19359977 127.65625 190.8203125 C126.57474108 191.90572029 125.49345163 192.9913468 124.41236877 194.07717896 C122.1522367 196.34473631 119.88831805 198.60842909 117.62182617 200.86962891 C114.75156744 203.73412061 111.8927825 206.60976022 109.03706264 209.48873711 C106.80724919 211.73346067 104.57035597 213.97102929 102.33152962 216.20676041 C101.27648435 217.26231101 100.22372646 218.32015411 99.17355156 219.38055038 C74.25326421 244.51340941 43.75358758 259.57625981 8.03515625 259.765625 C-29.19822952 259.80746288 -58.57596265 245.07742844 -84.6796875 219.05859375 C-108.58499822 193.72484618 -117.04472712 161.99302311 -116.58984375 127.91015625 C-115.46001827 90.53647095 -94.54255758 62.65390984 -69.1796875 37.1171875 C-68.66836336 36.60178783 -68.15703922 36.08638817 -67.63022041 35.55537033 C-64.93305211 32.83756855 -62.23278318 30.12289116 -59.5300293 27.41064453 C-56.75908837 24.62856712 -54.00004943 21.83498037 -51.24335384 19.03879738 C-49.09920772 16.86843137 -46.94615078 14.70707039 -44.79065132 12.54798508 C-43.76949929 11.52199672 -42.75169496 10.49266402 -41.73750114 9.45979691 C-30.3250829 -2.14993159 -15.49177725 -10.52271662 0 0 Z " fill="#006DD9" transform="translate(173.27734375,195.546875)"/>
<path d="M0 0 C6.37022115 5.86730895 9.42369383 12.76131319 10.06640625 21.37890625 C9.81411658 31.3369281 4.65824891 38.58395385 -2.17266846 45.44009399 C-2.68088567 45.95284232 -3.18910289 46.46559066 -3.71272063 46.99387681 C-5.40435892 48.69810068 -7.10298829 50.39517189 -8.80175781 52.09228516 C-10.02127829 53.31779443 -11.24038904 54.54371154 -12.4591217 55.77000427 C-15.76229686 59.09080852 -19.07189825 62.40513484 -22.38325977 65.71777391 C-24.45354703 67.78948482 -26.52240278 69.86261418 -28.59075165 71.93626022 C-35.81146605 79.17546309 -43.03731456 86.40949503 -50.26806641 93.63867188 C-57.00049494 100.36989861 -63.72168598 107.11220264 -70.43770528 113.85979807 C-76.21160532 119.6598721 -81.99321343 125.45218576 -87.78085399 131.23854864 C-91.23422203 134.69140748 -94.68443389 138.14728001 -98.12693024 141.61098099 C-101.36516907 144.86862143 -104.61292372 148.11646781 -107.86813164 151.35714912 C-109.05834086 152.54527173 -110.24517027 153.73679167 -111.42826271 154.93200111 C-119.56616777 163.14780277 -126.22038884 169.36302145 -138.33203125 170.03125 C-146.41079445 169.9366232 -152.72530981 166.7825701 -158.73046875 161.46875 C-163.89447592 156.06248077 -165.5920236 149.8077797 -166.375 142.5 C-165.59701618 135.23881769 -164.17763216 129.88862714 -159.11549377 124.4312439 C-158.30649187 123.55906597 -157.49748997 122.68688805 -156.66397285 121.78828049 C-151.866978 116.76744586 -146.99364679 111.82835272 -142.08959961 106.91259766 C-140.91882295 105.73553907 -139.74822993 104.5582978 -138.57780457 103.38088989 C-134.77283097 99.55510749 -130.96273331 95.73444945 -127.15234375 91.9140625 C-125.83345515 90.59111992 -124.51459816 89.26814583 -123.19577217 87.94514084 C-117.00575652 81.73613749 -110.81337662 75.52950417 -104.6180467 69.3258034 C-97.48739713 62.18535596 -90.36513206 55.03667805 -83.2497558 47.88101161 C-77.73041869 42.33150321 -72.20341656 36.78970407 -66.67062956 31.25360525 C-63.3735687 27.95419849 -60.07986979 24.65159562 -56.79426384 21.34077835 C-53.70771471 18.23092076 -50.61174586 15.13075775 -47.50839424 12.03767014 C-46.3746079 10.9043783 -45.24420946 9.76768483 -44.11756897 8.62728882 C-31.73812449 -3.89475351 -16.13429353 -12.42084502 0 0 Z " fill="#0098CD" transform="translate(334,174)"/>
</svg>
